{"glyphs":{"0":{"ha":694,"x_min":65,"x_max":629,"o":"m 184 532 q 179 461 184 505 q 347 81 157 65 q 510 494 510 81 q 510 532 510 510 q 510 564 510 548 q 347 939 526 928 q 179 559 174 944 q 184 532 184 537 m 347 -11 q 65 510 49 -11 q 347 1042 54 1042 q 629 510 656 1047 q 347 -11 646 -16 z "},"1":{"ha":694,"x_min":103,"x_max":439,"o":"m 326 0 l 326 760 l 103 760 l 103 846 q 353 1042 336 836 l 439 1042 l 439 0 l 326 0 z "},"2":{"ha":694,"x_min":60,"x_max":618,"o":"m 445 429 l 255 255 q 179 103 184 195 l 618 103 l 618 0 l 60 0 q 103 222 65 146 q 184 331 119 266 l 385 521 q 494 754 499 613 q 336 939 488 933 q 184 689 174 939 l 71 689 l 71 749 q 136 960 65 879 q 342 1042 212 1042 q 613 749 602 1031 q 445 429 618 575 z "},"3":{"ha":694,"x_min":54,"x_max":618,"o":"m 260 483 l 260 591 q 293 591 266 591 q 477 765 483 575 q 331 939 477 939 q 184 732 174 939 l 71 732 q 331 1042 71 1031 q 591 781 575 1025 q 445 548 591 597 q 618 309 613 505 q 326 -11 613 -5 q 54 304 43 -5 l 168 304 q 336 81 152 81 q 505 271 494 81 q 260 483 515 505 z "},"4":{"ha":694,"x_min":38,"x_max":624,"o":"m 418 863 l 130 363 l 418 363 l 418 863 m 38 369 l 429 1042 l 532 1042 l 532 363 l 624 363 l 624 260 l 532 260 l 532 0 l 418 0 l 418 260 l 38 260 l 38 369 z "},"5":{"ha":694,"x_min":60,"x_max":618,"o":"m 60 271 l 179 271 q 331 81 168 81 q 499 336 488 81 q 326 581 499 581 q 179 483 217 581 l 76 483 l 141 1020 l 581 1020 l 581 917 l 233 917 l 184 613 l 190 608 q 353 684 255 684 q 618 353 608 673 q 336 -11 608 -5 q 60 271 49 0 z "},"6":{"ha":694,"x_min":60,"x_max":635,"o":"m 515 336 q 347 559 515 553 q 190 347 184 559 q 358 81 174 81 q 515 336 510 81 m 613 792 l 494 792 q 353 939 494 939 q 174 553 190 939 q 174 532 174 537 l 179 532 q 369 662 233 656 q 635 342 618 651 q 358 -11 618 0 q 60 461 43 -16 q 369 1042 43 1042 q 613 792 597 1031 z "},"7":{"ha":694,"x_min":60,"x_max":635,"o":"m 60 917 l 60 1020 l 635 1020 l 635 922 q 293 0 336 521 l 163 0 q 537 917 222 505 l 60 917 z "},"8":{"ha":694,"x_min":65,"x_max":629,"o":"m 184 304 q 358 81 179 76 q 510 304 505 87 q 347 505 505 499 q 184 304 190 499 m 217 781 q 353 608 212 608 q 483 776 483 602 q 353 939 483 939 q 217 781 212 939 m 260 559 l 260 564 q 98 792 92 586 q 358 1042 109 1031 q 602 787 591 1031 q 445 564 597 591 l 445 559 q 629 315 618 521 q 353 -11 618 0 q 65 298 65 -5 q 260 559 71 515 z "},"9":{"ha":694,"x_min":60,"x_max":635,"o":"m 510 678 q 342 939 505 933 q 179 700 184 933 q 342 467 179 467 q 510 678 505 467 m 87 228 l 201 228 q 342 81 201 81 q 515 461 499 81 q 521 488 515 472 q 326 358 456 358 q 60 678 71 363 q 336 1042 71 1015 q 635 559 646 1047 q 326 -11 651 -16 q 87 228 92 0 z "}," ":{"ha":347,"x_min":0,"x_max":0,"o":""},"!":{"ha":461,"x_min":168,"x_max":293,"o":"m 201 255 l 168 722 l 168 1042 l 293 1042 l 293 722 l 260 255 l 201 255 m 293 0 l 168 0 l 168 141 l 293 141 l 293 0 z "},"\"":{"ha":347,"x_min":60,"x_max":288,"o":"m 60 711 l 60 1025 l 136 1025 l 136 711 l 60 711 m 217 711 l 217 1025 l 288 1025 l 288 711 l 217 711 z "},"#":{"ha":694,"x_min":5,"x_max":689,"o":"m 43 0 l 157 353 l 5 353 l 33 434 l 179 434 l 233 608 l 81 608 l 103 689 l 255 689 l 369 1042 l 445 1042 l 336 689 l 456 689 l 564 1042 l 640 1042 l 532 689 l 689 689 l 662 608 l 510 608 l 456 434 l 613 434 l 591 353 l 429 353 l 320 0 l 244 0 l 353 353 l 233 353 l 125 0 l 43 0 m 260 434 l 380 434 l 434 608 l 309 608 l 260 434 z "},"$":{"ha":694,"x_min":49,"x_max":646,"o":"m 374 450 l 374 87 q 526 255 526 76 q 374 450 532 401 m 315 87 l 315 477 q 60 765 49 575 q 315 1042 71 1020 l 315 1134 l 374 1134 l 374 1042 q 618 765 613 1025 l 505 765 q 445 922 505 890 q 374 939 407 939 l 374 586 q 401 570 385 575 q 646 282 662 472 q 374 -11 640 0 l 374 -152 l 315 -152 l 315 -11 q 49 320 22 0 l 163 320 q 315 87 136 76 m 315 608 l 315 939 q 179 781 179 922 q 315 608 168 662 z "},"%":{"ha":1156,"x_min":76,"x_max":1053,"o":"m 1053 260 q 852 0 1053 0 q 673 260 673 5 q 868 505 673 499 q 1053 260 1042 499 m 863 76 q 955 233 955 71 q 863 423 960 423 q 770 233 760 423 q 863 76 765 71 m 271 1020 q 450 776 445 1015 q 255 521 456 494 q 76 776 65 526 q 271 1020 76 1015 m 266 597 q 358 754 358 597 q 260 944 363 944 q 168 754 157 944 q 266 597 163 597 m 825 1042 l 363 -11 l 293 -11 l 754 1042 l 825 1042 z "},"&":{"ha":922,"x_min":103,"x_max":863,"o":"m 597 179 l 369 515 q 222 277 212 407 q 423 81 228 87 q 597 179 515 81 m 407 651 q 521 836 521 738 q 423 949 510 944 q 326 841 331 939 q 407 651 320 760 m 456 575 l 656 282 q 694 477 684 380 l 798 477 q 722 190 787 293 l 863 0 l 722 0 l 656 92 q 412 -16 559 -16 q 103 277 114 0 q 320 591 92 461 q 217 825 212 716 q 418 1042 228 1025 q 635 836 624 1031 q 456 575 629 694 z "},"'":{"ha":347,"x_min":136,"x_max":212,"o":"m 136 711 l 136 1025 l 212 1025 l 212 711 l 136 711 z "},"(":{"ha":461,"x_min":103,"x_max":401,"o":"m 315 1009 l 391 1009 q 369 966 380 987 q 217 407 212 705 q 401 -195 206 71 l 315 -195 q 103 391 98 109 q 315 1009 92 700 z "},")":{"ha":461,"x_min":65,"x_max":363,"o":"m 146 -195 l 65 -195 q 244 407 250 71 q 87 966 244 705 q 71 1009 76 987 l 146 1009 q 363 391 369 694 q 146 -195 363 114 z "},"*":{"ha":694,"x_min":136,"x_max":564,"o":"m 157 928 l 315 868 l 315 1042 l 385 1042 l 385 873 l 543 928 l 564 863 l 401 808 l 510 678 l 450 629 l 342 770 l 244 640 l 184 678 l 288 803 l 136 868 l 157 928 z "},"+":{"ha":694,"x_min":60,"x_max":635,"o":"m 298 401 l 298 700 l 396 700 l 396 401 l 635 401 l 635 304 l 396 304 l 396 0 l 298 0 l 298 304 l 60 304 l 60 401 l 298 401 z "},",":{"ha":347,"x_min":109,"x_max":239,"o":"m 179 0 l 109 0 l 109 141 l 239 141 q 233 43 239 81 q 233 -16 233 0 q 163 -163 228 -119 q 109 -190 141 -184 l 109 -130 q 141 -114 119 -125 q 179 0 179 -65 z "},"-":{"ha":694,"x_min":60,"x_max":635,"o":"m 60 304 l 60 401 l 635 401 l 635 304 l 60 304 z "},".":{"ha":347,"x_min":109,"x_max":239,"o":"m 239 0 l 109 0 l 109 141 l 239 141 l 239 0 z "},"/":{"ha":385,"x_min":-5,"x_max":401,"o":"m 65 -27 l -5 -27 l 320 1042 l 401 1042 l 65 -27 z "},":":{"ha":347,"x_min":109,"x_max":239,"o":"m 239 0 l 109 0 l 109 141 l 239 141 l 239 0 m 239 618 l 109 618 l 109 760 l 239 760 l 239 618 z "},";":{"ha":347,"x_min":109,"x_max":239,"o":"m 109 0 l 109 141 l 239 141 q 233 43 239 81 q 233 -16 233 0 q 163 -163 228 -119 q 109 -190 141 -184 l 109 -130 q 141 -114 119 -125 q 179 0 179 -65 l 109 0 m 239 618 l 109 618 l 109 760 l 239 760 l 239 618 z "},"<":{"ha":694,"x_min":60,"x_max":640,"o":"m 168 353 l 640 87 l 640 -5 l 60 309 l 60 396 l 640 722 l 640 618 l 168 353 z "},"=":{"ha":694,"x_min":60,"x_max":635,"o":"m 635 532 l 635 434 l 60 434 l 60 532 l 635 532 m 635 271 l 635 174 l 60 174 l 60 271 l 635 271 z "},">":{"ha":694,"x_min":60,"x_max":640,"o":"m 60 87 l 532 353 l 60 618 l 60 722 l 640 396 l 640 309 l 60 -5 l 60 87 z "},"?":{"ha":694,"x_min":81,"x_max":640,"o":"m 396 239 l 277 239 q 385 526 255 412 q 412 553 391 537 q 439 586 429 570 q 515 770 515 684 q 374 944 505 933 q 206 716 195 939 l 81 716 q 358 1042 81 1031 q 640 781 624 1025 q 510 499 640 646 q 429 401 456 434 q 407 358 412 380 q 396 239 391 298 m 401 0 l 277 0 l 277 141 l 401 141 l 401 0 z "},"@":{"ha":1107,"x_min":49,"x_max":1063,"o":"m 597 743 q 358 412 396 716 q 467 277 363 282 q 624 407 559 277 q 700 646 694 553 q 597 743 689 732 m 754 732 l 776 798 l 873 798 l 727 374 q 711 304 705 326 q 749 266 711 266 q 917 374 836 271 q 993 602 987 472 q 575 971 960 933 q 119 505 157 928 q 581 49 157 87 q 949 244 814 54 l 1036 244 q 581 -11 879 0 q 49 515 87 22 q 581 1042 92 993 q 911 922 765 1036 q 1063 597 1058 792 q 977 342 1058 456 q 732 190 863 190 q 613 266 635 190 q 445 195 548 195 q 250 401 260 206 q 597 830 293 792 q 754 732 711 825 z "},"A":{"ha":770,"x_min":16,"x_max":760,"o":"m 16 0 l 315 1042 l 467 1042 l 760 0 l 629 0 l 548 298 l 217 298 l 141 0 l 16 0 m 521 401 l 385 960 l 250 401 l 521 401 z "},"B":{"ha":770,"x_min":109,"x_max":700,"o":"m 228 103 l 407 103 q 581 298 581 92 q 331 494 586 515 l 228 494 l 228 103 m 228 939 l 228 597 l 331 597 q 548 776 564 570 q 326 939 564 949 l 228 939 m 385 0 l 109 0 l 109 1042 l 407 1042 q 673 781 662 1047 q 515 553 684 608 q 700 309 694 532 q 385 0 694 0 z "},"C":{"ha":770,"x_min":76,"x_max":700,"o":"m 700 727 l 586 727 q 396 960 575 960 q 195 537 184 960 q 396 81 174 81 q 575 304 553 76 q 575 336 575 315 q 586 374 581 358 l 700 374 q 694 315 689 353 q 689 277 689 293 q 629 92 678 152 q 407 -16 548 -16 q 76 532 49 -27 q 401 1063 65 1063 q 700 727 689 1047 z "},"D":{"ha":846,"x_min":114,"x_max":760,"o":"m 423 0 l 114 0 l 114 1042 l 401 1042 q 760 521 787 1042 q 423 0 754 0 m 228 939 l 228 103 l 412 103 q 640 543 662 87 q 412 939 646 949 l 228 939 z "},"E":{"ha":694,"x_min":103,"x_max":624,"o":"m 624 0 l 103 0 l 103 1042 l 624 1042 l 624 939 l 217 939 l 217 591 l 597 591 l 597 488 l 217 488 l 217 103 l 624 103 l 624 0 z "},"F":{"ha":613,"x_min":103,"x_max":591,"o":"m 217 0 l 103 0 l 103 1042 l 591 1042 l 591 939 l 217 939 l 217 597 l 564 597 l 564 494 l 217 494 l 217 0 z "},"G":{"ha":846,"x_min":76,"x_max":738,"o":"m 738 537 l 738 0 l 651 0 l 651 152 l 646 152 q 407 -16 597 -11 q 76 526 54 -22 q 418 1063 71 1063 q 727 738 722 1047 l 613 738 q 423 960 608 949 q 195 526 174 966 q 391 81 174 76 q 624 429 635 60 l 391 429 l 391 537 l 738 537 z "},"H":{"ha":846,"x_min":109,"x_max":738,"o":"m 222 0 l 109 0 l 109 1042 l 222 1042 l 222 608 l 624 608 l 624 1042 l 738 1042 l 738 0 l 624 0 l 624 505 l 222 505 l 222 0 z "},"I":{"ha":385,"x_min":136,"x_max":250,"o":"m 250 0 l 136 0 l 136 1042 l 250 1042 l 250 0 z "},"J":{"ha":613,"x_min":27,"x_max":510,"o":"m 33 326 l 146 326 l 146 266 q 266 81 136 71 q 396 266 401 76 l 396 1042 l 510 1042 l 510 255 q 266 -11 510 -16 q 65 76 119 -11 q 33 326 16 168 z "},"K":{"ha":770,"x_min":109,"x_max":760,"o":"m 228 0 l 109 0 l 109 1042 l 222 1042 l 222 505 l 228 505 l 602 1042 l 749 1042 l 418 608 l 760 0 l 618 0 l 336 505 l 228 363 l 228 0 z "},"L":{"ha":694,"x_min":114,"x_max":656,"o":"m 656 0 l 114 0 l 114 1042 l 228 1042 l 228 103 l 656 103 l 656 0 z "},"M":{"ha":1080,"x_min":103,"x_max":977,"o":"m 564 228 l 770 1042 l 977 1042 l 977 0 l 857 0 l 857 857 q 857 895 857 873 q 857 993 857 955 q 825 852 841 922 l 608 0 l 472 0 l 250 863 q 233 917 244 879 q 222 993 222 960 l 217 993 q 217 917 217 966 q 222 857 222 873 l 222 0 l 103 0 l 103 1042 l 309 1042 l 515 228 q 537 76 526 174 q 548 146 537 98 q 564 228 553 184 z "},"N":{"ha":846,"x_min":109,"x_max":743,"o":"m 624 190 l 624 1042 l 743 1042 l 743 0 l 553 0 l 260 836 q 222 993 233 895 l 217 993 q 217 922 217 960 q 222 830 222 890 l 222 0 l 109 0 l 109 1042 l 293 1042 l 591 190 q 624 76 608 125 l 629 76 q 624 130 629 92 q 624 190 618 168 z "},"O":{"ha":846,"x_min":81,"x_max":770,"o":"m 81 543 q 429 1063 71 1063 q 770 543 776 1063 q 423 -16 776 -27 q 81 543 71 -27 m 651 543 q 423 960 651 960 q 201 543 195 960 q 423 81 179 54 q 651 543 662 49 z "},"P":{"ha":770,"x_min":119,"x_max":722,"o":"m 233 939 l 233 548 l 347 548 q 602 749 613 526 q 353 939 608 949 l 233 939 m 233 0 l 119 0 l 119 1042 l 391 1042 q 635 971 559 1042 q 722 749 722 895 q 575 472 716 543 q 304 439 494 434 l 233 439 l 233 0 z "},"Q":{"ha":846,"x_min":81,"x_max":808,"o":"m 689 125 l 808 27 l 749 -38 l 635 49 q 423 -16 559 -11 q 81 543 71 -27 q 423 1063 71 1063 q 770 543 776 1063 q 689 125 760 228 m 548 119 l 445 201 l 505 277 l 602 201 q 651 499 640 304 q 597 857 646 765 q 423 960 548 960 q 201 499 179 982 q 423 81 195 71 q 548 119 494 76 z "},"R":{"ha":846,"x_min":119,"x_max":787,"o":"m 233 939 l 233 564 l 418 564 q 618 754 613 559 q 396 939 613 944 l 233 939 m 233 456 l 233 0 l 119 0 l 119 1042 l 385 1042 q 738 743 754 1053 q 537 515 722 553 q 722 320 711 515 q 743 87 727 206 q 743 76 743 81 q 787 22 760 16 l 787 0 l 651 0 q 624 109 635 38 q 613 266 613 190 q 434 456 608 450 l 233 456 z "},"S":{"ha":770,"x_min":71,"x_max":700,"o":"m 673 770 l 553 770 q 391 960 559 949 q 206 770 201 960 q 304 629 206 667 q 385 597 331 613 q 467 570 434 581 q 700 288 722 483 q 380 -16 689 0 q 92 141 163 -16 q 71 331 65 190 l 184 331 q 385 81 163 71 q 581 260 575 87 q 439 450 581 401 q 412 461 423 450 q 347 483 391 467 q 206 543 244 515 q 87 776 81 597 q 374 1063 98 1047 q 673 770 678 1053 z "},"T":{"ha":694,"x_min":22,"x_max":673,"o":"m 22 939 l 22 1042 l 673 1042 l 673 939 l 407 939 l 407 0 l 293 0 l 293 939 l 22 939 z "},"U":{"ha":846,"x_min":114,"x_max":738,"o":"m 114 250 l 114 1042 l 228 1042 l 228 293 q 423 81 217 76 q 624 293 624 76 l 624 1042 l 738 1042 l 738 250 q 423 -16 732 -11 q 114 250 119 -5 z "},"V":{"ha":770,"x_min":16,"x_max":760,"o":"m 385 81 l 629 1042 l 760 1042 l 456 0 l 315 0 l 16 1042 l 141 1042 l 385 81 z "},"W":{"ha":1156,"x_min":22,"x_max":1134,"o":"m 543 705 l 391 0 l 244 0 l 22 1042 l 152 1042 l 288 326 q 320 81 304 195 q 326 152 320 103 q 353 315 336 255 l 505 1042 l 651 1042 l 787 326 q 819 81 803 190 q 852 315 836 201 l 1004 1042 l 1134 1042 l 890 0 l 743 0 l 608 705 q 575 922 591 765 q 575 960 575 944 q 543 705 559 846 z "},"X":{"ha":770,"x_min":22,"x_max":749,"o":"m 22 0 l 320 537 l 33 1042 l 168 1042 l 385 635 l 602 1042 l 738 1042 l 456 537 l 749 0 l 608 0 l 385 434 l 163 0 l 22 0 z "},"Y":{"ha":770,"x_min":16,"x_max":760,"o":"m 141 1042 l 385 521 l 629 1042 l 760 1042 l 445 401 l 445 0 l 326 0 l 326 401 l 16 1042 l 141 1042 z "},"Z":{"ha":694,"x_min":38,"x_max":656,"o":"m 656 0 l 38 0 l 38 98 l 532 939 l 49 939 l 49 1042 l 651 1042 l 651 944 l 157 103 l 656 103 l 656 0 z "},"[":{"ha":461,"x_min":141,"x_max":385,"o":"m 385 -195 l 141 -195 l 141 1009 l 385 1009 l 385 933 l 250 933 l 250 -114 l 385 -114 l 385 -195 z "},"]":{"ha":461,"x_min":81,"x_max":326,"o":"m 81 -195 l 81 -114 l 217 -114 l 217 933 l 81 933 l 81 1009 l 326 1009 l 326 -195 l 81 -195 z "},"^":{"ha":461,"x_min":27,"x_max":434,"o":"m 326 868 l 233 998 l 141 868 l 27 868 l 168 1063 l 298 1063 l 434 868 l 326 868 z "},"_":{"ha":694,"x_min":0,"x_max":694,"o":"m 694 -163 l 0 -163 l 0 -92 l 694 -92 l 694 -163 z "},"a":{"ha":613,"x_min":43,"x_max":581,"o":"m 396 228 l 396 418 q 298 369 363 396 q 222 331 244 342 q 157 201 157 298 q 266 71 152 65 q 396 228 391 81 m 581 81 l 581 0 q 553 0 564 0 q 418 103 412 -16 l 412 103 q 244 -11 353 0 q 43 206 33 -16 q 152 391 43 342 q 288 445 206 412 q 385 488 380 483 q 407 559 407 505 q 407 581 407 570 q 282 700 412 705 q 174 564 152 705 l 76 564 q 304 792 65 792 q 510 586 515 792 l 510 141 q 532 81 505 87 q 581 81 537 76 z "},"b":{"ha":694,"x_min":103,"x_max":618,"o":"m 206 369 q 363 71 190 65 q 505 401 510 54 q 358 700 505 694 q 201 385 201 700 q 206 369 206 374 m 206 92 l 206 0 l 103 0 l 103 1042 l 212 1042 l 212 694 l 217 694 q 380 792 271 792 q 618 434 613 787 q 385 -11 624 -11 q 206 92 260 -16 z "},"c":{"ha":613,"x_min":60,"x_max":564,"o":"m 456 271 l 564 271 q 331 -11 548 -5 q 60 374 49 -16 q 326 792 54 792 q 559 532 543 781 l 456 532 q 326 700 445 700 q 174 353 163 700 q 320 71 168 71 q 456 271 450 60 z "},"d":{"ha":694,"x_min":65,"x_max":591,"o":"m 477 304 l 477 396 q 331 700 483 700 q 179 391 174 705 q 331 71 163 54 q 477 304 461 76 m 477 694 l 477 1042 l 591 1042 l 591 0 l 483 0 l 483 103 q 293 -11 418 -16 q 65 353 71 -11 q 65 385 65 374 q 298 792 65 776 q 477 694 396 792 z "},"e":{"ha":613,"x_min":60,"x_max":548,"o":"m 174 467 l 434 467 q 429 488 429 477 q 309 700 429 700 q 174 477 184 700 q 174 467 174 467 m 439 255 l 543 255 q 309 -11 537 0 q 60 385 54 -16 q 309 792 65 781 q 543 418 537 792 q 548 374 543 391 l 174 374 q 174 326 174 358 q 315 71 163 65 q 439 255 439 71 z "},"f":{"ha":385,"x_min":16,"x_max":358,"o":"m 130 0 l 130 678 l 16 678 l 16 770 l 130 770 l 130 836 q 157 987 125 944 q 358 1042 201 1058 l 358 949 q 239 852 222 971 l 239 770 l 358 770 l 358 678 l 239 678 l 239 0 l 130 0 z "},"g":{"ha":694,"x_min":65,"x_max":591,"o":"m 331 711 q 179 396 174 705 q 320 81 174 76 q 483 412 494 76 q 331 711 477 705 m 483 694 l 483 781 l 591 781 l 591 103 q 586 33 591 54 q 537 -92 575 -16 q 326 -195 467 -195 q 92 -11 114 -190 l 195 -11 q 320 -109 201 -114 q 477 38 467 -109 q 483 98 483 71 l 477 98 q 309 0 418 0 q 65 401 60 -5 q 309 803 71 798 q 483 694 423 798 z "},"h":{"ha":694,"x_min":103,"x_max":597,"o":"m 212 515 l 212 0 l 103 0 l 103 1042 l 212 1042 l 212 689 q 401 792 293 792 q 597 597 591 787 l 597 0 l 483 0 l 483 564 q 369 700 483 700 q 260 656 309 694 q 212 515 206 613 z "},"i":{"ha":304,"x_min":98,"x_max":212,"o":"m 212 0 l 98 0 l 98 770 l 212 770 l 212 0 m 212 901 l 98 901 l 98 1042 l 212 1042 l 212 901 z "},"j":{"ha":304,"x_min":22,"x_max":217,"o":"m 22 -195 l 22 -98 q 98 -76 81 -98 q 109 0 109 -49 q 109 11 109 0 l 109 770 l 217 770 l 217 16 q 22 -195 228 -212 m 212 901 l 103 901 l 103 1042 l 212 1042 l 212 901 z "},"k":{"ha":613,"x_min":98,"x_max":608,"o":"m 206 0 l 98 0 l 98 1042 l 206 1042 l 206 412 l 472 770 l 602 770 l 363 472 l 608 0 l 483 0 l 288 385 l 206 277 l 206 0 z "},"l":{"ha":304,"x_min":98,"x_max":212,"o":"m 212 0 l 98 0 l 98 1042 l 212 1042 l 212 0 z "},"m":{"ha":1080,"x_min":103,"x_max":977,"o":"m 217 515 l 217 0 l 103 0 l 103 770 l 212 770 l 212 673 q 396 792 282 787 q 581 673 521 787 q 787 792 662 792 q 928 738 868 792 q 977 559 977 689 l 977 0 l 868 0 l 868 564 q 749 700 868 700 q 646 656 689 694 q 597 515 591 613 l 597 0 l 488 0 l 488 564 q 369 700 488 700 q 260 656 309 694 q 217 515 212 618 z "},"n":{"ha":694,"x_min":103,"x_max":597,"o":"m 206 770 l 206 689 l 212 689 q 401 792 293 792 q 597 597 591 787 l 597 0 l 483 0 l 483 564 q 369 700 483 700 q 260 656 309 694 q 212 515 206 613 l 212 0 l 103 0 l 103 770 l 206 770 z "},"o":{"ha":694,"x_min":71,"x_max":624,"o":"m 624 412 q 347 -11 629 -22 q 71 412 65 -16 q 347 792 71 787 q 624 412 618 787 m 510 380 q 347 700 515 711 q 184 380 174 711 q 347 71 179 60 q 510 380 510 60 z "},"p":{"ha":694,"x_min":98,"x_max":618,"o":"m 505 418 q 358 716 505 711 q 212 407 201 716 q 358 92 195 87 q 505 418 505 81 m 212 98 l 212 -195 l 98 -195 l 98 792 l 206 792 l 206 705 q 369 814 255 803 q 618 456 602 803 q 374 0 618 0 q 212 98 271 0 z "},"q":{"ha":694,"x_min":81,"x_max":591,"o":"m 195 363 q 336 81 190 76 q 483 396 494 76 q 342 711 494 705 q 195 363 174 711 m 488 700 l 488 781 l 591 781 l 591 -195 l 483 -195 l 483 92 q 320 0 412 0 q 81 385 87 -11 q 309 803 76 781 q 488 700 418 803 z "},"r":{"ha":461,"x_min":114,"x_max":445,"o":"m 217 770 l 217 646 l 222 646 q 445 781 282 798 l 445 673 q 222 467 233 700 l 222 0 l 114 0 l 114 770 l 217 770 z "},"s":{"ha":613,"x_min":54,"x_max":553,"o":"m 526 564 l 423 564 q 298 700 423 700 q 179 586 179 700 q 293 450 179 499 q 331 439 315 445 q 363 423 347 429 q 553 217 559 358 q 293 -11 543 0 q 103 60 152 -5 q 54 206 54 114 q 60 222 54 217 l 163 222 q 293 71 152 65 q 439 201 439 65 q 304 331 434 288 q 250 358 277 342 q 65 575 49 412 q 288 792 71 781 q 526 564 532 787 z "},"t":{"ha":385,"x_min":11,"x_max":358,"o":"m 228 982 l 228 770 l 358 770 l 358 678 l 228 678 l 228 152 q 222 141 228 146 q 282 92 217 87 l 353 92 l 353 0 l 233 0 q 119 125 114 0 l 119 678 l 11 678 l 11 770 l 119 770 l 119 982 l 228 982 z "},"u":{"ha":694,"x_min":109,"x_max":591,"o":"m 477 0 l 477 103 q 293 -11 418 -5 q 109 179 103 -11 l 109 770 l 217 770 l 217 174 q 315 71 212 65 q 445 141 396 71 q 477 277 477 184 l 477 770 l 591 770 l 591 0 l 477 0 z "},"v":{"ha":613,"x_min":16,"x_max":597,"o":"m 250 0 l 16 770 l 130 770 l 309 92 l 483 770 l 597 770 l 369 0 l 250 0 z "},"w":{"ha":922,"x_min":27,"x_max":901,"o":"m 521 770 l 651 92 l 787 770 l 901 770 l 711 0 l 597 0 l 467 678 l 461 678 l 336 0 l 222 0 l 27 770 l 141 770 l 282 92 l 407 770 l 521 770 z "},"x":{"ha":613,"x_min":11,"x_max":608,"o":"m 250 396 l 27 770 l 141 770 l 315 494 l 483 770 l 597 770 l 374 396 l 608 0 l 494 0 l 309 309 l 125 0 l 11 0 l 250 396 z "},"y":{"ha":613,"x_min":5,"x_max":586,"o":"m 244 0 l 5 798 l 119 798 l 293 136 l 472 798 l 586 798 l 358 60 q 293 -98 315 -49 q 114 -195 233 -195 q 33 -184 71 -195 l 33 -92 q 114 -109 54 -109 q 244 0 195 -103 z "},"z":{"ha":537,"x_min":33,"x_max":510,"o":"m 510 0 l 33 0 l 33 87 l 391 684 l 49 684 l 49 770 l 505 770 l 505 684 l 146 92 l 510 92 l 510 0 z "},"{":{"ha":380,"x_min":11,"x_max":369,"o":"m 244 266 l 244 22 q 369 -119 233 -76 l 369 -125 q 136 71 114 -136 l 136 304 q 92 423 141 380 q 11 456 60 445 q 103 499 71 461 q 136 602 136 526 l 136 863 q 195 1004 130 966 q 369 1042 250 1042 l 369 1036 q 244 884 233 1004 l 244 624 q 109 456 250 483 q 244 266 255 429 z "},"}":{"ha":380,"x_min":11,"x_max":369,"o":"m 136 646 l 136 884 q 11 1036 136 1004 l 11 1042 q 244 836 255 1058 l 244 608 q 293 488 233 515 q 369 456 326 461 l 369 450 q 277 412 304 439 q 244 309 239 369 l 244 49 q 190 -87 244 -43 q 114 -109 157 -103 q 11 -119 81 -119 q 136 22 136 -81 l 136 282 q 271 450 125 429 l 271 456 q 136 646 119 477 z "},"~":{"ha":694,"x_min":60,"x_max":635,"o":"m 586 477 l 635 412 q 472 260 564 260 q 353 298 439 260 q 320 320 326 315 q 222 358 255 358 q 114 239 163 358 q 109 228 109 233 l 60 298 q 222 461 130 461 q 358 412 277 456 q 380 396 363 407 q 477 363 450 358 q 586 477 532 363 z "},"上":{"ha":1389,"x_min":206,"x_max":1150,"o":"m 586 -76 l 586 1134 l 705 1134 l 705 743 l 1074 743 l 1074 678 l 705 678 l 705 -76 l 1150 -76 l 1150 -141 l 206 -141 l 206 -76 l 586 -76 z "},"么":{"ha":1389,"x_min":206,"x_max":1128,"o":"m 543 1134 l 705 1134 q 250 429 646 814 l 206 429 q 543 1134 526 776 m 640 808 l 770 808 q 456 0 732 407 q 890 136 705 27 q 836 646 836 347 l 846 646 q 1128 27 949 146 q 1074 -125 1085 -16 q 1069 -152 1069 -152 q 901 103 960 -65 q 271 -141 678 -54 q 239 16 277 -49 q 412 0 326 0 q 640 808 618 298 z "},"任":{"ha":1389,"x_min":184,"x_max":1128,"o":"m 369 1166 l 510 1166 q 401 787 472 971 l 445 787 l 445 -174 l 336 -174 l 336 684 q 217 505 288 597 l 184 505 q 369 1166 347 760 m 543 1004 l 543 1015 q 966 1156 770 1069 q 1080 1058 1009 1123 l 879 1031 l 879 559 l 1128 559 l 1128 505 l 879 505 l 879 -76 l 1107 -76 l 1107 -130 l 521 -130 l 521 -76 l 770 -76 l 770 505 l 510 505 l 510 559 l 770 559 l 770 1020 q 543 1004 656 1009 z "},"使":{"ha":1389,"x_min":228,"x_max":1172,"o":"m 401 1166 l 532 1166 q 412 798 499 966 l 456 798 l 456 -174 l 358 -174 l 358 689 q 320 629 342 667 q 260 537 282 564 l 228 537 q 401 1166 342 754 m 651 477 l 770 477 l 770 738 l 651 738 l 651 477 m 879 738 l 879 477 l 998 477 l 998 738 l 879 738 m 770 418 l 651 418 l 651 342 l 618 342 q 743 125 667 201 q 760 239 754 157 q 770 418 765 320 m 597 342 l 543 342 l 543 863 l 651 863 l 651 798 l 770 798 l 770 955 l 532 955 l 532 1015 l 770 1015 l 770 1166 l 879 1166 l 879 1015 l 1172 1015 l 1172 955 l 879 955 l 879 798 l 998 798 l 998 863 l 1107 863 l 1107 331 l 998 331 l 998 418 l 879 418 q 814 81 879 233 q 1150 -22 933 0 q 1128 -168 1096 -92 l 1123 -174 q 754 5 895 -114 q 515 -174 629 -114 l 461 -174 q 705 60 613 -65 q 597 342 629 152 z "},"做":{"ha":1389,"x_min":206,"x_max":1161,"o":"m 250 581 l 206 581 q 358 1177 374 906 l 499 1177 q 369 798 477 993 l 423 798 l 423 -163 l 315 -163 l 315 700 q 304 678 309 689 q 250 581 271 608 m 597 689 l 597 884 l 477 884 l 477 949 l 597 949 l 597 1166 l 705 1166 l 705 949 l 803 949 l 803 884 l 705 884 l 705 808 q 591 559 700 673 l 591 510 l 684 515 l 684 570 l 781 570 l 781 -54 l 684 -54 l 684 5 l 586 5 l 586 -87 l 488 -87 l 488 570 l 586 570 q 597 689 591 629 m 770 613 l 727 613 q 846 1156 857 841 l 977 1156 q 933 939 960 1042 l 1161 939 l 1161 873 l 1074 873 l 1074 548 q 998 163 1069 342 q 1150 5 1053 38 q 1128 -157 1101 -65 q 1123 -163 1128 -163 q 1112 -163 1118 -163 q 944 60 1025 -98 q 760 -174 852 -76 l 705 -174 q 906 136 836 -22 q 836 537 830 347 l 836 705 q 770 613 814 667 m 966 418 l 966 873 l 917 873 q 895 830 906 857 q 857 743 873 770 q 944 250 863 429 q 966 418 960 331 m 586 71 l 684 71 l 684 450 l 586 450 l 586 71 z "},"公":{"ha":1389,"x_min":239,"x_max":1183,"o":"m 798 1177 l 808 1177 q 1183 624 890 781 q 1156 483 1134 570 q 1156 456 1156 456 q 1134 461 1156 450 q 798 1177 836 651 m 477 1101 l 618 1101 q 266 472 602 846 l 239 472 q 477 1101 445 722 m 803 624 l 814 624 q 1107 5 868 250 q 1042 -136 1053 -43 q 1031 -157 1036 -157 q 1015 -146 1025 -163 q 890 71 933 -38 q 315 -152 673 -98 q 293 5 336 -60 q 401 0 347 0 q 608 754 575 271 l 749 754 q 429 0 716 331 q 879 92 705 0 q 803 624 798 288 z "},"击":{"ha":1389,"x_min":228,"x_max":1161,"o":"m 315 901 l 315 960 l 640 960 l 640 1166 l 754 1166 l 754 960 l 1096 960 l 1096 901 l 754 901 l 754 651 l 1161 651 l 1161 591 l 754 591 l 754 0 l 922 0 l 922 429 l 1036 429 l 1036 -163 l 922 -163 l 922 -60 l 445 -60 l 445 -163 l 331 -163 l 331 429 l 445 429 l 445 0 l 640 0 l 640 591 l 228 591 l 228 651 l 640 651 l 640 901 l 315 901 z "},"前":{"ha":1389,"x_min":184,"x_max":1128,"o":"m 184 939 l 521 939 q 434 1161 456 1058 l 439 1166 q 608 1025 515 1107 q 564 939 602 1009 l 760 939 l 879 1166 l 933 1139 l 819 939 l 1128 939 l 1128 884 l 184 884 l 184 939 m 380 -152 l 271 -152 l 271 787 l 391 787 l 391 732 l 543 732 l 543 787 l 651 787 l 651 -33 q 526 -163 656 -114 q 483 -146 526 -136 l 429 -157 l 423 -141 q 543 -43 553 -98 l 543 678 l 380 678 l 380 494 l 510 494 l 510 439 l 380 439 l 380 255 l 499 255 l 499 201 l 380 201 l 380 -152 m 933 -65 l 933 787 l 1042 787 l 1042 -43 q 911 -184 1053 -141 q 868 -168 906 -152 l 803 -179 l 798 -163 q 933 -65 939 -114 m 738 711 l 846 711 l 846 81 l 738 81 l 738 711 z "},"动":{"ha":1389,"x_min":239,"x_max":1145,"o":"m 651 819 l 651 873 l 792 873 l 792 1177 l 901 1177 l 901 873 l 1036 873 l 1036 949 l 1145 949 l 1145 38 q 966 -163 1139 -98 q 928 -146 949 -136 l 863 -163 l 846 -152 q 1036 27 1036 -81 l 1036 819 l 901 819 l 901 515 q 852 130 901 255 q 646 -163 803 0 l 613 -163 q 792 499 808 22 l 792 819 l 651 819 m 684 1069 l 684 1015 l 315 1015 l 315 1069 l 684 1069 m 564 591 l 575 591 q 727 190 586 315 q 705 5 689 119 l 694 0 q 602 168 635 76 q 239 -11 483 22 q 239 109 271 60 q 255 103 244 109 q 277 103 266 98 q 412 667 412 271 l 271 667 l 271 722 l 716 722 l 716 667 l 521 667 q 304 103 521 277 q 597 184 477 92 q 553 374 564 266 q 564 591 548 483 z "},"司":{"ha":1389,"x_min":228,"x_max":1101,"o":"m 987 -22 l 987 1042 l 293 1042 l 293 1101 l 987 1101 l 987 1156 l 1101 1156 l 1101 -11 q 928 -168 1107 -141 q 901 -152 928 -152 l 836 -163 l 830 -146 q 987 -22 1004 -109 m 922 792 l 228 792 l 228 852 l 922 852 l 922 792 m 456 195 l 456 92 l 342 92 l 342 656 l 456 656 l 456 597 l 694 597 l 694 656 l 808 656 l 808 109 l 694 109 l 694 195 l 456 195 m 694 255 l 694 537 l 456 537 l 456 255 l 694 255 z "},"向":{"ha":1389,"x_min":347,"x_max":1139,"o":"m 456 1015 l 456 949 l 602 949 q 651 1177 651 966 l 803 1177 q 640 949 787 1004 l 1031 949 l 1031 1015 l 1139 1015 l 1139 -11 q 966 -168 1134 -119 q 949 -152 971 -152 l 873 -163 l 868 -152 q 1031 -11 1036 -92 l 1031 895 l 456 895 l 456 -152 l 347 -152 l 347 1015 l 456 1015 m 808 92 l 808 179 l 662 179 l 662 71 l 559 71 l 559 732 l 662 732 l 662 678 l 808 678 l 808 732 l 911 732 l 911 92 l 808 92 m 808 624 l 662 624 l 662 233 l 808 233 l 808 624 z "},"块":{"ha":1389,"x_min":271,"x_max":1204,"o":"m 760 841 l 651 841 l 651 906 l 760 906 l 760 1166 l 868 1166 l 868 906 l 1009 906 l 1009 949 l 1118 949 l 1118 656 q 998 450 1118 548 l 1204 450 l 1204 385 l 911 385 q 1204 -11 955 92 q 1161 -174 1150 -60 q 890 385 890 -11 l 868 385 q 521 -174 884 87 l 477 -174 q 760 385 760 43 l 575 385 l 575 450 l 760 450 l 760 841 m 401 743 l 282 743 l 282 808 l 401 808 l 401 1156 l 510 1156 l 510 808 l 608 808 l 608 743 l 510 743 l 510 157 q 656 266 597 206 l 667 260 q 282 -22 548 38 q 271 114 309 43 q 401 125 369 114 l 401 743 m 868 841 l 868 450 l 966 450 q 1009 624 1004 532 l 1009 841 l 868 841 z "},"实":{"ha":1389,"x_min":239,"x_max":1139,"o":"m 358 993 l 716 993 q 613 1166 656 1069 l 613 1172 q 776 1090 705 1134 q 727 993 770 1063 l 1009 993 l 1009 1036 l 1118 1036 l 1118 808 q 1058 814 1085 825 q 1020 765 1031 798 l 1009 765 l 1009 939 l 358 939 l 358 798 l 250 798 l 250 1036 l 358 1036 l 358 993 m 521 353 l 662 353 q 673 543 667 450 l 673 873 l 781 873 l 781 559 q 776 434 781 461 q 770 353 776 401 l 1128 353 l 1128 298 l 781 298 q 1139 0 879 81 q 1134 -179 1101 -81 l 1128 -184 q 760 288 814 -33 q 336 -174 646 38 l 271 -174 q 651 298 591 60 l 239 298 l 239 353 l 510 353 q 385 667 418 532 l 391 673 q 553 515 521 548 q 521 353 543 423 m 445 857 l 450 863 q 608 732 559 776 q 564 613 597 651 q 445 857 483 727 z "},"就":{"ha":1389,"x_min":260,"x_max":1204,"o":"m 282 928 l 282 982 l 532 982 q 445 1172 483 1069 l 450 1177 q 597 1101 553 1123 q 553 982 581 1036 l 781 982 l 781 928 l 282 928 m 629 798 l 629 841 l 727 841 l 727 798 l 836 798 l 836 1166 l 933 1166 l 933 798 l 1194 798 l 1194 743 l 1074 743 l 1074 -11 q 1096 -54 1069 -54 q 1128 -5 1123 -54 l 1161 255 l 1183 255 l 1177 43 l 1204 43 l 1204 -65 q 1118 -163 1204 -163 l 1069 -163 q 977 -65 966 -168 l 977 743 l 933 743 l 933 385 q 684 -184 960 152 l 640 -184 q 836 320 830 60 l 836 743 l 727 743 l 727 461 l 629 461 l 629 505 l 445 505 l 445 450 l 347 450 l 347 841 l 445 841 l 445 798 l 629 798 m 998 1080 l 1004 1085 q 1139 949 1080 1020 q 1074 841 1112 879 q 998 1080 1036 906 m 629 743 l 445 743 l 445 559 l 629 559 l 629 743 m 358 -168 l 353 -146 q 488 -43 510 -98 l 488 450 l 586 450 l 586 -27 q 461 -163 597 -119 q 412 -152 445 -136 l 358 -168 m 743 22 l 738 16 q 640 385 624 190 l 651 385 q 770 190 673 266 q 743 22 727 119 m 293 -43 l 260 -43 q 347 374 358 125 l 445 374 q 293 -43 450 201 z "},"工":{"ha":1389,"x_min":260,"x_max":1194,"o":"m 260 -11 l 673 -11 l 673 1058 l 336 1058 l 336 1123 l 1139 1123 l 1139 1058 l 792 1058 l 792 -11 l 1194 -11 l 1194 -76 l 260 -76 l 260 -11 z "},"师":{"ha":1389,"x_min":282,"x_max":1183,"o":"m 483 233 l 483 1177 l 586 1177 l 586 244 q 326 -163 597 60 l 282 -163 q 483 233 477 22 m 309 136 l 309 1112 l 412 1112 l 412 136 l 309 136 m 760 819 l 852 819 l 852 1053 l 629 1053 l 629 1112 l 1183 1112 l 1183 1053 l 949 1053 l 949 819 l 1042 819 l 1042 884 l 1145 884 l 1145 136 q 1031 0 1145 38 q 998 5 1031 11 l 949 0 l 949 -174 l 852 -174 l 852 760 l 760 760 l 760 16 l 656 16 l 656 884 l 760 884 l 760 819 m 949 760 l 949 27 q 1042 125 1042 43 l 1042 760 l 949 760 z "},"开":{"ha":1389,"x_min":195,"x_max":1139,"o":"m 429 570 l 195 570 l 195 635 l 429 635 l 429 1058 l 250 1058 l 250 1123 l 1096 1123 l 1096 1058 l 901 1058 l 901 635 l 1139 635 l 1139 570 l 901 570 l 901 -141 l 787 -141 l 787 570 l 543 570 l 543 429 q 277 -130 570 136 l 228 -130 q 429 342 429 71 l 429 570 m 543 1058 l 543 635 l 787 635 l 787 1058 l 543 1058 z "},"怎":{"ha":1389,"x_min":222,"x_max":1161,"o":"m 423 1166 l 564 1166 q 537 1063 553 1118 q 526 1025 526 1036 l 1118 1025 l 1118 971 l 618 971 l 618 787 l 1031 787 l 1031 732 l 618 732 l 618 570 l 1042 570 l 1042 515 l 618 515 l 618 385 l 505 385 l 505 982 q 282 722 412 852 l 244 722 q 423 1166 407 944 m 656 369 l 662 374 q 825 190 754 282 q 776 60 808 119 l 770 60 q 656 369 711 163 m 944 358 l 949 363 q 1161 103 1009 293 q 1101 -27 1134 11 l 1096 -27 q 944 358 1025 81 m 477 -33 l 477 342 l 586 342 l 586 0 q 656 -65 575 -71 l 798 -65 q 879 -16 868 -65 l 922 190 l 944 190 l 933 0 l 966 0 q 819 -163 982 -184 l 613 -163 q 477 -33 461 -174 m 222 -119 l 222 -81 q 304 49 304 -16 l 304 309 l 412 309 l 412 136 q 222 -119 423 -5 z "},"思":{"ha":1389,"x_min":260,"x_max":1188,"o":"m 488 374 l 380 374 l 380 1145 l 488 1145 l 488 1090 l 966 1090 l 966 1134 l 1074 1134 l 1074 374 l 966 374 l 966 439 l 488 439 l 488 374 m 673 792 l 673 1031 l 488 1031 l 488 792 l 673 792 m 781 1031 l 781 792 l 966 792 l 966 1031 l 781 1031 m 488 499 l 673 499 l 673 732 l 488 732 l 488 499 m 966 732 l 781 732 l 781 499 l 966 499 l 966 732 m 667 369 l 667 374 q 830 228 776 288 q 787 81 825 168 l 781 81 q 667 369 705 168 m 499 -38 l 499 342 l 608 342 l 608 0 q 651 -54 602 -54 l 863 -54 q 911 -11 906 -54 l 944 201 l 966 201 l 966 27 l 998 27 l 998 -71 q 890 -163 998 -157 l 613 -163 q 499 -38 494 -163 m 955 315 l 955 320 q 1188 98 1042 250 q 1145 -33 1172 33 l 1139 -33 q 955 315 1025 146 m 260 -87 l 260 -54 q 326 71 326 -27 l 326 298 l 434 298 l 434 71 q 260 -87 439 -54 z "},"我":{"ha":1389,"x_min":228,"x_max":1150,"o":"m 532 808 l 738 808 l 738 1166 l 846 1166 l 846 808 l 1150 808 l 1150 754 l 846 754 l 846 624 q 852 445 841 515 q 884 239 857 380 q 966 559 960 353 l 966 656 l 1074 656 l 1074 591 q 917 136 1074 304 q 1074 5 966 43 l 1123 320 l 1145 320 l 1118 11 l 1150 -5 l 1150 -174 q 836 60 960 -130 q 602 -152 754 -16 l 543 -152 q 803 136 732 11 q 738 635 743 320 l 738 754 l 532 754 l 532 461 q 694 553 624 488 q 694 553 700 553 q 705 548 689 543 q 532 385 673 461 l 532 -33 q 380 -163 526 -119 q 347 -141 374 -136 l 255 -157 l 250 -141 q 423 -11 439 -87 l 423 331 q 239 277 347 293 q 228 429 266 353 q 423 434 315 407 l 423 754 l 228 754 l 228 808 l 423 808 l 423 1036 q 233 1025 369 1020 q 233 1025 228 1025 q 228 1036 233 1031 q 586 1166 445 1085 q 705 1069 651 1123 q 532 1047 618 1053 l 532 808 m 944 1128 l 949 1128 q 1096 993 1009 1085 q 1042 884 1074 928 q 944 1128 993 949 z "},"战":{"ha":1389,"x_min":304,"x_max":1183,"o":"m 412 548 l 412 1177 l 521 1177 l 521 949 l 716 949 l 716 884 l 521 884 l 521 548 l 412 548 l 412 483 l 564 483 l 564 548 l 673 548 l 673 -87 l 564 -87 l 564 -11 l 412 -11 l 412 -141 l 304 -141 l 304 548 l 412 548 m 640 743 l 640 808 l 803 808 l 803 1177 l 911 1177 l 911 808 l 1183 808 l 1183 743 l 911 743 q 955 244 917 445 q 1015 494 1009 347 l 1015 667 l 1128 667 l 1128 505 q 987 146 1123 336 q 1112 -5 1042 16 l 1150 298 l 1172 298 l 1161 -16 l 1183 -27 l 1183 -168 q 901 60 998 -141 q 689 -152 792 -54 l 640 -152 q 873 130 760 -38 q 803 743 798 374 l 640 743 m 1080 863 l 1074 863 q 955 1128 998 966 l 960 1128 q 1118 993 1069 1047 q 1080 863 1112 944 m 564 429 l 412 429 l 412 38 l 564 38 l 564 429 z "},"打":{"ha":1389,"x_min":271,"x_max":1204,"o":"m 293 803 l 293 857 l 445 857 l 445 1156 l 553 1156 l 553 857 l 705 857 l 705 803 l 553 803 l 553 537 q 694 656 618 570 l 700 651 q 553 450 667 564 l 553 -33 q 391 -184 548 -130 q 358 -163 380 -163 l 293 -179 l 282 -163 q 445 -33 439 -109 l 445 385 q 304 309 380 336 q 271 450 309 380 q 445 483 363 450 l 445 803 l 293 803 m 955 -43 l 955 1025 l 694 1025 l 694 1080 l 1204 1080 l 1204 1025 l 1063 1025 l 1063 -54 q 895 -190 1058 -130 q 857 -168 884 -163 l 798 -184 l 781 -174 q 955 -43 949 -109 z "},"技":{"ha":1389,"x_min":250,"x_max":1161,"o":"m 803 939 l 803 1166 l 911 1166 l 911 939 l 1139 939 l 1139 884 l 911 884 l 911 656 l 966 656 l 966 711 l 1074 711 l 1074 526 q 922 130 1069 304 q 1161 5 1025 49 q 1156 -152 1123 -54 l 1150 -157 q 846 54 971 -71 q 543 -179 754 -27 l 494 -179 q 814 98 662 -54 q 705 602 700 288 l 678 602 l 678 656 l 803 656 l 803 884 l 629 884 l 629 841 l 521 841 l 521 570 q 684 711 613 624 l 689 705 q 521 483 662 597 l 521 0 q 353 -174 521 -103 q 320 -157 336 -146 l 260 -179 l 250 -163 q 412 -11 434 -103 l 412 407 q 282 342 347 358 q 250 472 288 412 q 412 515 331 477 l 412 841 l 260 841 l 260 895 l 412 895 l 412 1156 l 521 1156 l 521 895 l 629 895 l 629 939 l 803 939 m 966 429 l 966 602 l 727 602 q 879 179 754 315 q 966 429 960 304 z "},"按":{"ha":1389,"x_min":233,"x_max":1172,"o":"m 705 982 l 868 982 q 798 1166 808 1058 q 933 1080 879 1123 q 901 982 922 1020 l 1042 982 l 1042 1025 l 1150 1025 l 1150 798 q 1042 754 1096 825 l 1042 928 l 705 928 l 705 787 l 597 787 l 597 1015 l 705 1015 l 705 982 m 380 819 l 250 819 l 250 873 l 380 873 l 380 1156 l 488 1156 l 488 873 l 564 873 l 564 819 l 488 819 l 488 548 q 613 667 570 608 l 624 662 q 586 581 608 618 l 727 581 q 765 808 749 711 l 873 808 q 836 581 863 732 l 1172 581 l 1172 526 l 1053 526 q 955 92 1042 228 q 960 81 955 87 q 1128 -33 1123 -22 q 1128 -174 1139 -152 q 906 33 1009 -65 q 564 -174 808 -65 l 521 -174 q 857 81 754 -65 l 749 190 l 738 125 l 635 125 q 716 526 673 255 l 575 526 l 575 570 q 488 472 537 505 l 488 -22 q 336 -157 488 -109 q 304 -141 315 -136 l 244 -157 l 233 -141 q 380 -43 374 -92 l 380 385 q 250 309 304 326 q 239 472 277 391 q 315 477 282 472 q 380 499 342 483 l 380 819 m 944 526 l 825 526 q 792 374 808 472 q 760 222 770 271 q 890 136 825 174 q 944 526 949 288 z "},"掌":{"ha":1389,"x_min":282,"x_max":1194,"o":"m 575 939 l 684 939 l 684 1166 l 792 1166 l 792 939 l 846 939 l 998 1145 l 1042 1112 l 911 939 l 1085 939 l 1085 982 l 1194 982 l 1194 765 q 1085 732 1118 825 l 1085 884 l 391 884 l 391 743 l 282 743 l 282 982 l 391 982 l 391 939 l 559 939 q 439 1150 499 1031 l 439 1156 q 602 1058 537 1101 q 575 939 602 1020 m 575 526 l 467 526 l 467 819 l 575 819 l 575 787 l 911 787 l 911 819 l 1020 819 l 1020 537 q 1118 456 1063 505 l 1118 450 q 890 423 1031 434 q 792 418 825 418 l 792 320 l 1107 320 l 1107 266 l 792 266 l 792 168 l 1183 168 l 1183 114 l 792 114 l 792 -33 q 629 -174 798 -136 q 591 -157 635 -141 l 526 -168 l 521 -152 q 651 -92 629 -119 q 684 -22 684 -76 l 684 114 l 282 114 l 282 168 l 684 168 l 684 266 l 358 266 l 358 320 l 684 320 l 684 412 q 461 412 559 412 q 336 418 374 412 l 336 429 q 944 526 722 456 l 911 526 l 911 581 l 575 581 l 575 526 m 575 732 l 575 635 l 911 635 l 911 732 l 575 732 z "},"接":{"ha":1389,"x_min":184,"x_max":1128,"o":"m 575 993 l 825 993 q 749 1172 781 1074 l 754 1177 q 852 1118 781 1156 q 906 1090 890 1096 q 868 993 901 1080 l 1085 993 l 1085 939 l 977 939 l 1015 922 l 917 667 l 1128 667 l 1128 613 l 814 613 l 770 418 l 1128 418 l 1128 363 l 1020 363 q 917 54 998 206 q 1112 -33 1047 0 q 1118 -184 1123 -92 l 1112 -184 q 1015 -109 1085 -163 q 868 0 922 -43 q 553 -184 770 -81 l 488 -184 q 825 38 700 -76 l 700 125 l 689 71 l 586 71 l 651 363 l 521 363 l 521 418 l 662 418 l 705 613 l 575 613 q 461 461 532 543 q 445 445 450 450 l 445 -22 q 315 -163 456 -119 q 277 -152 309 -141 l 217 -163 l 212 -141 q 336 -54 353 -103 l 336 391 q 206 331 271 353 q 184 483 228 407 q 336 494 277 483 l 336 808 l 195 808 l 195 863 l 336 863 l 336 1166 l 445 1166 l 445 863 l 586 863 l 586 808 l 445 808 l 445 548 q 613 711 510 597 l 618 705 q 597 667 591 662 l 738 667 q 656 939 711 743 l 575 939 l 575 993 m 960 939 l 678 939 q 705 906 689 922 q 803 787 781 825 q 760 667 792 732 l 857 667 l 960 939 m 705 146 l 852 87 q 917 363 901 222 l 760 363 l 705 146 z "},"握":{"ha":1389,"x_min":217,"x_max":1150,"o":"m 358 505 l 358 808 l 228 808 l 228 863 l 358 863 l 358 1156 l 467 1156 l 467 863 l 553 863 l 553 808 l 467 808 l 467 559 q 586 678 559 597 l 586 1156 l 694 1156 l 694 1101 l 998 1101 l 998 1156 l 1107 1156 l 1107 776 l 998 776 l 998 819 l 694 819 l 694 711 l 1128 711 l 1128 656 l 977 656 q 1128 494 1020 526 q 1107 342 1074 429 l 1096 331 q 998 472 1031 385 q 868 385 884 385 l 955 385 l 955 212 l 1118 212 l 1118 157 l 955 157 l 955 -65 l 1150 -65 l 1150 -119 l 618 -119 l 618 -65 l 846 -65 l 846 157 l 727 157 l 727 212 l 846 212 l 846 374 q 727 342 787 342 q 694 429 727 401 l 694 288 q 499 -136 694 125 q 488 -163 494 -146 l 445 -163 q 586 222 581 0 l 586 635 q 467 483 548 553 l 467 -43 q 315 -163 467 -114 q 298 -152 309 -146 l 233 -163 l 228 -152 q 358 -54 358 -114 l 358 396 q 239 331 304 353 q 217 483 266 418 q 358 505 288 472 m 694 873 l 998 873 l 998 1047 l 694 1047 l 694 873 m 955 656 l 922 656 q 770 450 868 505 l 770 439 q 987 494 901 445 q 960 602 971 532 q 955 656 955 635 m 803 656 l 694 656 l 694 450 q 803 656 798 429 z "},"方":{"ha":1389,"x_min":250,"x_max":1161,"o":"m 250 944 l 727 944 q 629 1172 684 1009 l 635 1177 q 792 1058 732 1118 q 738 944 770 987 l 1161 944 l 1161 890 l 586 890 l 586 673 l 890 673 l 890 743 l 998 743 l 998 -11 q 819 -163 998 -109 q 814 -168 814 -163 q 770 -152 792 -141 l 711 -168 l 694 -152 q 890 -22 884 -92 l 890 618 l 586 618 q 320 -136 624 22 q 282 -174 298 -152 l 250 -174 q 434 81 401 -38 q 477 602 477 217 l 477 890 l 250 890 l 250 944 z "},"星":{"ha":1389,"x_min":239,"x_max":1183,"o":"m 477 591 l 358 591 l 358 1123 l 477 1123 l 477 1080 l 977 1080 l 977 1123 l 1096 1123 l 1096 581 l 977 581 l 977 635 l 477 635 l 477 591 m 477 689 l 977 689 l 977 1025 l 477 1025 l 477 884 l 911 884 l 911 830 l 477 830 l 477 689 m 401 548 l 532 548 q 499 418 521 488 l 684 418 l 684 581 l 803 581 l 803 418 l 1128 418 l 1128 363 l 803 363 l 803 190 l 1063 190 l 1063 136 l 803 136 l 803 -87 l 1183 -87 l 1183 -141 l 250 -141 l 250 -87 l 684 -87 l 684 136 l 401 136 l 401 190 l 684 190 l 684 363 l 477 363 q 271 136 396 255 l 239 136 q 401 548 407 358 z "},"是":{"ha":1389,"x_min":239,"x_max":1183,"o":"m 901 581 l 901 618 l 521 618 l 521 581 l 412 581 l 412 1156 l 521 1156 l 521 1128 l 901 1128 l 901 1156 l 1009 1156 l 1009 581 l 901 581 m 521 841 l 521 678 l 901 678 l 901 1069 l 521 1069 l 521 901 l 857 901 l 857 841 l 521 841 m 662 -54 l 662 450 l 250 450 l 250 510 l 1183 510 l 1183 450 l 770 450 l 770 260 l 1063 260 l 1063 201 l 770 201 l 770 -54 l 922 -54 q 1150 -43 998 -54 q 1183 -43 1172 -43 q 1161 -163 1139 -98 l 684 -163 q 467 81 521 -157 q 293 -163 396 -60 l 239 -163 q 391 353 396 -38 l 499 353 q 499 81 477 206 q 662 -54 537 -38 z "},"标":{"ha":1389,"x_min":195,"x_max":1139,"o":"m 347 819 l 217 819 l 217 873 l 358 873 l 358 1177 l 467 1177 l 467 873 l 586 873 l 586 819 l 467 819 l 467 656 q 597 526 581 548 q 570 407 591 439 q 467 613 521 445 l 467 -174 l 358 -174 l 358 418 q 293 293 336 369 q 228 168 244 212 l 195 168 q 347 819 304 385 m 1085 1047 l 608 1047 l 608 1101 l 1085 1101 l 1085 1047 m 792 -22 l 792 711 l 553 711 l 553 765 l 1128 765 l 1128 711 l 901 711 l 901 -43 q 716 -174 895 -136 q 684 -152 705 -141 l 602 -163 l 591 -146 q 792 -22 781 -109 m 960 597 l 966 597 q 971 559 966 581 q 1139 179 1015 271 q 1118 -33 1101 103 q 987 228 1031 49 q 960 597 944 412 m 640 570 l 749 570 q 624 130 754 385 q 553 -22 570 22 l 510 -22 q 640 570 640 217 z "},"点":{"ha":1389,"x_min":239,"x_max":1161,"o":"m 369 798 l 477 798 l 477 743 l 629 743 l 629 1177 l 738 1177 l 738 1020 l 1139 1020 l 1139 966 l 738 966 l 738 743 l 911 743 l 911 808 l 1020 808 l 1020 222 l 911 222 l 911 288 l 477 288 l 477 222 l 369 222 l 369 798 m 911 689 l 477 689 l 477 342 l 911 342 l 911 689 m 939 168 l 944 168 q 1161 -11 1009 16 q 1150 -174 1118 -76 q 939 168 955 -81 m 543 157 l 548 157 q 684 -22 618 65 q 608 -152 667 -103 q 543 157 548 -5 m 347 11 l 347 168 l 456 168 l 456 22 q 239 -174 439 -130 l 239 -136 q 347 11 342 -109 m 727 146 l 732 146 q 901 -38 814 65 q 830 -157 879 -103 q 727 146 743 0 z "},"球":{"ha":1389,"x_min":217,"x_max":1150,"o":"m 553 873 l 553 928 l 770 928 l 770 1145 l 879 1145 l 879 928 l 998 928 q 944 1139 960 1009 l 949 1145 q 1063 1036 1004 1101 q 1009 928 1053 987 l 1150 928 l 1150 873 l 933 873 q 939 684 928 765 q 966 477 944 602 l 1085 776 l 1134 754 l 987 418 q 1150 157 1036 250 q 1139 -54 1134 114 q 949 244 998 33 q 917 494 922 347 q 911 873 906 635 l 879 873 l 879 -54 q 738 -184 879 -136 q 689 -174 738 -152 l 624 -184 l 618 -168 q 770 -43 798 -109 l 770 396 q 548 5 700 168 q 537 11 526 0 q 510 163 543 103 q 770 439 656 222 l 770 873 l 553 873 m 586 765 l 591 770 q 732 510 689 613 q 667 391 700 434 q 586 765 624 477 m 353 157 l 353 564 l 250 564 l 250 624 l 353 624 l 353 987 l 228 987 l 228 1047 l 586 1047 l 586 987 l 456 987 l 456 624 l 575 624 l 575 564 l 456 564 l 456 212 q 581 342 505 239 l 586 342 q 239 -33 505 76 q 217 125 266 60 q 353 157 282 119 z "},"琪":{"ha":1389,"x_min":184,"x_max":1139,"o":"m 564 884 l 564 939 l 651 939 l 651 1166 l 760 1166 l 760 939 l 933 939 l 933 1156 l 1042 1156 l 1042 939 l 1128 939 l 1128 884 l 1042 884 l 1042 233 l 1139 233 l 1139 168 l 911 168 q 1128 -43 966 33 q 1096 -184 1085 -98 q 890 168 922 -60 l 575 168 l 575 233 l 651 233 l 651 884 l 564 884 m 879 418 l 760 418 l 760 233 l 933 233 l 933 884 l 760 884 l 760 700 l 879 700 l 879 646 l 760 646 l 760 472 l 879 472 l 879 418 m 651 136 l 781 136 q 488 -184 760 -11 l 445 -184 q 651 136 618 -60 m 336 1025 l 217 1025 l 217 1080 l 586 1080 l 586 1025 l 445 1025 l 445 646 l 575 646 l 575 591 l 445 591 l 445 157 q 581 277 521 201 l 586 277 q 217 -43 494 49 q 184 92 222 22 q 336 114 277 92 l 336 591 l 217 591 l 217 646 l 336 646 l 336 1025 z "},"用":{"ha":1389,"x_min":271,"x_max":1145,"o":"m 304 -174 l 271 -174 q 391 255 391 0 l 391 1166 l 505 1166 l 505 1101 l 1031 1101 l 1031 1166 l 1145 1166 l 1145 -33 q 977 -174 1112 -136 q 944 -157 960 -146 l 873 -168 l 868 -152 q 1031 -22 1036 -98 l 1031 363 l 803 363 l 803 -141 l 694 -141 l 694 363 l 505 363 q 304 -174 505 81 m 694 765 l 694 1036 l 505 1036 l 505 765 l 694 765 m 803 765 l 1031 765 l 1031 1036 l 803 1036 l 803 765 m 694 700 l 505 700 l 505 429 l 694 429 l 694 700 m 803 700 l 803 429 l 1031 429 l 1031 700 l 803 700 z "},"的":{"ha":1389,"x_min":250,"x_max":1096,"o":"m 738 1166 l 868 1166 q 814 863 857 982 l 987 863 l 987 939 l 1096 939 l 1096 0 q 944 -163 1090 -109 q 906 -146 933 -141 l 841 -163 l 830 -152 q 987 -11 977 -98 l 987 808 l 792 808 q 662 591 749 716 l 640 591 l 640 -76 l 532 -76 l 532 -5 l 358 -5 l 358 -119 l 250 -119 l 250 917 l 358 917 l 358 863 l 385 863 q 423 1156 429 944 l 543 1156 q 412 863 543 998 l 532 863 l 532 917 l 640 917 l 640 602 q 738 1166 743 798 m 358 43 l 532 43 l 532 808 l 358 808 l 358 515 l 477 515 l 477 461 l 358 461 l 358 43 m 727 602 l 732 608 q 879 385 836 472 q 814 233 857 293 q 727 602 749 385 z "},"盘":{"ha":1389,"x_min":239,"x_max":1183,"o":"m 532 1080 l 532 1015 l 640 1015 q 662 1166 662 1074 l 792 1166 q 694 1015 749 1063 l 911 1015 l 911 1069 l 1020 1069 l 1020 754 l 1183 754 l 1183 700 l 1020 700 l 1020 494 q 884 342 1025 380 q 846 358 879 363 l 776 347 l 770 363 q 911 483 933 396 l 911 700 l 640 700 q 781 526 694 640 q 727 429 754 461 q 629 700 673 537 l 532 700 l 532 635 q 320 336 532 505 q 304 320 309 326 l 250 320 q 423 581 418 461 l 423 700 l 260 700 l 260 754 l 423 754 l 423 1080 l 532 1080 m 532 754 l 716 754 q 640 960 667 852 l 532 960 l 532 754 m 727 754 l 911 754 l 911 960 l 651 960 q 667 944 656 955 q 781 852 722 906 q 727 754 760 792 m 548 244 l 456 244 l 456 -76 l 548 -76 l 548 244 m 656 244 l 656 -76 l 749 -76 l 749 244 l 656 244 m 857 -76 l 944 -76 l 944 244 l 857 244 l 857 -76 m 347 342 l 456 342 l 456 309 l 944 309 l 944 331 l 1053 331 l 1053 -76 l 1172 -76 l 1172 -141 l 239 -141 l 239 -76 l 347 -76 l 347 342 z "},"目":{"ha":1389,"x_min":374,"x_max":1090,"o":"m 488 -43 l 488 -163 l 374 -163 l 374 1145 l 488 1145 l 488 1085 l 977 1085 l 977 1145 l 1090 1145 l 1090 -152 l 977 -152 l 977 -43 l 488 -43 m 977 11 l 977 1025 l 488 1025 l 488 749 l 890 749 l 890 689 l 488 689 l 488 401 l 890 401 l 890 342 l 488 342 l 488 11 l 977 11 z "},"移":{"ha":1389,"x_min":282,"x_max":1204,"o":"m 564 776 l 705 776 q 814 1177 787 873 l 933 1177 q 928 1145 928 1161 q 911 1047 922 1090 l 1074 1047 l 1074 1101 l 1194 1101 q 868 591 1188 819 l 955 591 q 949 559 949 575 q 933 483 949 515 l 1085 483 l 1085 548 l 1204 548 q 716 -174 1172 109 l 651 -174 q 1074 429 1074 125 l 911 429 q 857 331 890 374 q 879 298 863 320 q 955 212 939 233 q 901 103 944 141 q 836 309 879 109 q 673 114 792 250 l 629 114 q 814 537 803 304 q 770 510 803 532 q 705 483 716 477 q 673 418 705 472 q 651 363 656 385 q 564 581 602 429 l 564 -174 l 456 -174 l 456 342 q 315 114 391 228 l 282 114 q 445 722 423 358 l 304 722 l 304 776 l 456 776 l 456 1025 q 298 1009 363 1004 q 353 1031 298 1009 q 629 1172 586 1123 q 738 1085 689 1134 q 564 1036 689 1058 l 564 776 m 1063 993 l 890 993 q 857 928 879 955 q 955 825 939 846 q 933 722 949 787 q 1063 993 1031 825 m 705 743 l 705 722 l 564 722 l 564 646 l 564 624 l 684 505 q 911 700 803 548 q 846 906 873 781 q 825 873 836 895 q 727 743 776 808 q 711 743 716 738 q 705 743 705 743 z "},"程":{"ha":1389,"x_min":206,"x_max":1161,"o":"m 401 787 l 401 1036 q 250 1036 326 1025 l 250 1047 q 553 1161 450 1096 q 656 1101 602 1134 q 662 1085 667 1090 q 646 1080 662 1080 q 510 1047 586 1058 l 510 787 l 662 787 l 662 732 l 510 732 l 510 613 q 651 477 613 515 q 618 342 635 396 q 510 570 559 434 l 510 -163 l 401 -163 l 401 401 q 266 163 374 342 q 239 114 250 136 l 206 114 q 391 732 353 391 l 239 732 l 239 787 l 401 787 m 814 646 l 705 646 l 705 1145 l 814 1145 l 814 1090 l 1009 1090 l 1009 1134 l 1118 1134 l 1118 646 l 1009 646 l 1009 722 l 814 722 l 814 646 m 814 776 l 1009 776 l 1009 1036 l 814 1036 l 814 776 m 662 222 l 662 277 l 841 277 l 841 505 l 673 505 l 673 559 l 1150 559 l 1150 505 l 949 505 l 949 277 l 1139 277 l 1139 222 l 949 222 l 949 -65 l 1161 -65 l 1161 -119 l 608 -119 l 608 -65 l 841 -65 l 841 222 l 662 222 z "},"端":{"ha":1389,"x_min":217,"x_max":1150,"o":"m 602 732 l 602 1090 l 700 1090 l 700 852 l 798 852 l 798 1156 l 895 1156 l 895 852 l 993 852 l 993 1090 l 1090 1090 l 1090 732 l 993 732 l 993 798 l 700 798 l 700 732 l 602 732 m 217 792 l 217 846 l 412 846 q 315 1128 347 971 l 320 1134 q 477 977 401 1058 q 423 846 467 906 l 564 846 l 564 792 l 217 792 m 575 222 l 575 472 l 673 472 l 673 429 l 760 429 q 781 602 781 456 l 543 602 l 543 656 l 1150 656 l 1150 602 l 890 602 q 792 429 884 505 l 1020 429 l 1020 472 l 1118 472 l 1118 -76 q 977 -184 1118 -141 q 944 -168 960 -163 l 890 -184 l 879 -174 q 1020 -76 1020 -114 l 1020 374 l 966 374 l 966 -87 l 879 -87 l 879 374 l 819 374 l 819 -87 l 732 -87 l 732 374 l 673 374 l 673 -184 l 575 -184 l 575 201 q 239 -33 456 33 q 217 103 244 33 q 396 125 309 92 l 472 743 l 521 738 l 439 141 q 575 222 510 157 m 260 684 l 266 684 q 391 363 342 515 q 304 244 353 293 l 298 250 q 271 434 282 304 q 260 684 260 564 z "},"罗":{"ha":1389,"x_min":271,"x_max":1134,"o":"m 1025 689 l 1025 732 l 401 732 l 401 667 l 293 667 l 293 1145 l 401 1145 l 401 1101 l 1025 1101 l 1025 1145 l 1134 1145 l 1134 689 l 1025 689 m 646 787 l 781 787 l 781 1036 l 646 1036 l 646 787 m 1025 1036 l 890 1036 l 890 787 l 1025 787 l 1025 1036 m 401 1036 l 401 787 l 537 787 l 537 1036 l 401 1036 m 532 700 l 662 700 q 608 548 640 618 l 911 548 l 911 613 l 1042 613 q 998 363 1036 488 q 358 -174 949 98 l 293 -174 q 738 114 532 -49 q 532 439 640 212 q 315 201 467 353 l 271 201 q 532 700 488 445 m 911 494 l 575 494 l 543 450 q 760 277 738 298 q 743 157 760 255 q 743 119 743 130 q 911 494 890 277 z "},"职":{"ha":1389,"x_min":206,"x_max":1150,"o":"m 1074 363 l 977 363 l 977 450 l 836 450 l 836 363 l 738 363 l 738 1156 l 836 1156 l 836 1101 l 977 1101 l 977 1156 l 1074 1156 l 1074 363 m 293 168 l 293 1069 l 228 1069 l 228 1123 l 673 1123 l 673 1069 l 618 1069 l 618 255 q 689 309 662 282 q 700 298 722 336 q 618 190 667 244 l 618 -152 q 770 320 749 22 l 879 320 q 651 -163 846 54 l 521 -163 l 521 136 q 228 27 380 54 q 222 87 228 60 q 206 168 222 109 l 293 168 m 521 212 l 521 1069 l 391 1069 l 391 819 l 488 819 l 488 765 l 391 765 l 391 515 l 488 515 l 488 461 l 391 461 l 391 179 q 521 212 439 184 m 836 1047 l 836 505 l 977 505 l 977 1047 l 836 1047 m 955 331 l 977 331 q 1150 16 1015 92 q 1123 -146 1101 -49 q 1112 -152 1128 -163 q 955 331 960 -54 z "},"能":{"ha":1389,"x_min":228,"x_max":1166,"o":"m 228 808 l 293 808 q 391 1166 396 939 l 521 1166 q 326 808 505 1009 q 602 873 472 814 q 581 977 586 922 q 575 1101 570 1025 l 586 1101 q 760 841 646 911 q 716 711 716 765 q 711 689 716 689 q 700 705 711 689 q 608 852 635 760 q 239 678 439 727 q 228 808 260 760 m 808 662 l 808 1166 l 911 1166 l 911 868 l 1096 1090 l 1139 1058 l 911 798 l 911 732 q 982 656 901 646 l 1015 656 q 1085 705 1085 646 l 1112 863 l 1134 863 l 1128 700 l 1156 700 l 1156 651 q 1031 559 1150 559 l 922 559 q 808 662 803 553 m 412 -152 l 309 -152 l 309 667 l 412 667 l 412 624 l 586 624 l 586 656 l 689 656 l 689 -43 q 543 -163 689 -130 q 510 -146 532 -130 l 450 -157 l 445 -141 q 564 -92 548 -103 q 586 -43 586 -76 l 586 570 l 412 570 l 412 429 l 553 429 l 553 374 l 412 374 l 412 255 l 553 255 l 553 201 l 412 201 l 412 -152 m 803 -60 l 803 526 l 911 526 l 911 233 l 1107 450 l 1150 407 l 911 152 l 911 -5 q 966 -54 906 -54 l 1025 -54 q 1090 0 1080 -54 l 1128 201 l 1150 201 l 1134 0 l 1166 0 l 1166 -54 q 1063 -163 1161 -157 l 928 -163 q 803 -60 792 -168 z "},"钮":{"ha":1389,"x_min":195,"x_max":1150,"o":"m 288 700 l 233 613 l 195 613 q 326 1145 326 819 l 456 1145 q 439 1074 445 1118 q 423 1004 429 1025 l 618 1004 l 618 939 l 401 939 q 315 754 358 841 l 597 754 l 597 700 l 467 700 l 467 483 l 618 483 l 618 429 l 467 429 l 467 43 q 635 141 532 65 l 640 136 q 271 -130 521 -33 q 250 5 277 -54 q 369 11 309 0 l 369 429 l 206 429 l 206 483 l 369 483 l 369 700 l 288 700 m 597 602 l 716 602 l 716 1025 l 608 1025 l 608 1080 l 966 1080 l 966 1134 l 1074 1134 l 1074 266 q 922 -65 1074 98 l 1150 -65 l 1150 -119 l 521 -119 l 521 -65 l 673 -65 q 716 244 716 130 l 716 537 l 597 537 l 597 602 m 825 602 l 966 602 l 966 1025 l 825 1025 l 825 602 m 694 -65 l 901 -65 q 966 157 966 49 l 966 537 l 825 537 l 825 298 q 694 -65 825 152 z "},"链":{"ha":1389,"x_min":239,"x_max":1194,"o":"m 358 1177 l 477 1177 q 472 1156 472 1166 q 456 1025 461 1063 l 586 1025 l 586 971 l 445 971 q 358 776 396 852 l 575 776 l 575 722 l 467 722 l 467 494 l 597 494 l 597 439 l 467 439 l 467 71 q 602 174 510 98 l 608 174 q 293 -109 505 -11 q 250 38 293 -33 q 369 43 369 33 l 369 439 l 250 439 l 250 494 l 369 494 l 369 722 l 326 722 q 271 646 298 678 l 239 646 q 358 1177 353 830 m 879 971 l 781 971 l 781 1025 l 884 1025 q 884 1096 884 1053 q 890 1177 884 1134 l 1009 1177 q 998 1025 1004 1107 l 1172 1025 l 1172 971 l 993 971 q 955 852 977 906 l 1042 852 l 1042 624 l 1172 624 l 1172 570 l 1042 570 l 1042 374 l 1183 374 l 1183 320 l 1042 320 l 1042 -11 l 944 -11 l 944 320 l 781 320 l 781 374 l 944 374 l 944 570 l 836 570 q 781 537 808 570 l 781 618 q 879 971 846 732 m 608 1112 l 618 1118 q 754 955 711 1025 q 705 841 732 884 q 608 1112 667 895 m 944 624 l 944 819 q 803 624 890 700 l 944 624 m 640 49 l 640 624 l 532 624 l 532 678 l 640 678 l 640 754 l 738 754 l 738 114 q 879 -54 749 -43 q 1080 -49 1036 -54 q 1194 -43 1139 -49 q 1183 -163 1134 -98 q 933 -163 1058 -163 q 716 92 722 -163 q 543 -174 684 -125 q 521 -11 564 -92 q 640 49 656 -16 z "},"键":{"ha":1389,"x_min":271,"x_max":1226,"o":"m 412 1177 l 510 1177 l 499 1025 l 608 1025 l 608 982 l 716 982 l 716 1058 l 803 1058 l 803 993 q 640 624 792 700 l 716 624 l 716 656 l 814 656 l 814 483 q 808 358 814 429 q 792 201 803 298 l 911 201 l 911 342 l 846 342 l 846 396 l 911 396 l 911 559 l 846 559 l 846 613 l 911 613 l 911 776 l 814 776 l 814 830 l 911 830 l 911 971 l 846 971 l 846 1025 l 911 1025 l 911 1166 l 1009 1166 l 1009 1025 l 1074 1025 l 1074 1080 l 1172 1080 l 1172 830 l 1226 830 l 1226 776 l 1172 776 l 1172 505 l 1074 505 l 1074 559 l 1009 559 l 1009 396 l 1150 396 l 1150 342 l 1009 342 l 1009 201 l 1183 201 l 1183 146 l 1009 146 l 1009 -22 l 911 -22 l 911 146 l 781 146 q 770 119 776 130 q 732 16 749 49 q 814 -54 749 -49 q 1226 -33 1080 -54 q 1215 -163 1177 -92 q 808 -141 895 -168 q 684 -22 711 -119 q 564 -174 624 -103 l 521 -174 q 570 -103 548 -130 q 662 16 624 -33 q 651 157 651 92 q 304 -87 521 -54 q 293 38 331 -27 q 412 49 353 38 l 412 439 l 293 439 l 293 494 l 412 494 l 412 711 l 358 711 l 315 656 l 271 656 q 412 1177 412 836 m 716 928 l 608 928 l 608 971 l 488 971 q 391 765 456 863 l 597 765 l 597 711 l 499 711 l 499 494 l 575 494 l 575 439 l 499 439 l 499 71 q 646 179 570 98 q 618 450 624 326 q 618 505 618 483 l 635 505 q 667 266 646 412 q 694 125 684 179 q 711 244 705 201 q 716 342 716 298 l 716 570 l 651 570 q 608 537 629 564 l 608 624 q 684 732 646 640 q 716 928 716 830 m 1009 971 l 1009 830 l 1074 830 l 1074 971 l 1009 971 m 1009 776 l 1009 613 l 1074 613 l 1074 776 l 1009 776 z "},"项":{"ha":1389,"x_min":184,"x_max":1107,"o":"m 184 1004 l 184 1058 l 499 1058 l 499 1015 l 412 1015 l 412 222 q 553 380 477 271 l 553 928 l 662 928 l 662 873 l 705 873 q 738 1080 732 884 l 488 1080 l 488 1134 l 1096 1134 l 1096 1080 l 857 1080 q 738 873 857 933 l 922 873 l 922 928 l 1031 928 l 1031 282 q 879 114 1036 190 q 1107 -22 933 11 q 1085 -184 1058 -71 q 814 179 841 -103 q 483 -163 749 0 l 423 -163 q 727 282 716 5 l 727 743 l 836 743 l 836 255 q 863 146 836 201 q 922 260 922 179 l 922 819 l 662 819 l 662 168 l 553 168 l 553 353 q 206 5 450 76 q 184 157 239 87 q 304 168 239 146 l 304 1004 l 184 1004 z "},"鼠":{"ha":1389,"x_min":282,"x_max":1172,"o":"m 342 1145 l 445 1145 l 445 1036 q 662 1166 553 1085 q 754 1080 738 1112 q 445 1025 656 1042 l 445 917 l 673 917 l 673 863 l 445 863 l 445 732 l 977 732 l 977 863 l 760 863 l 760 917 l 977 917 l 977 1047 l 760 1047 l 760 1101 l 977 1101 l 977 1145 l 1080 1145 l 1080 613 l 1020 613 l 1020 266 q 1112 11 1020 81 l 1145 244 l 1161 244 l 1161 -11 l 1172 -16 l 1172 -174 q 917 298 901 -54 l 917 624 l 977 624 l 977 678 l 445 678 l 445 613 l 467 613 l 467 0 q 613 71 515 5 l 618 65 q 282 -163 488 -114 q 282 -43 304 -98 q 363 -33 320 -43 l 363 613 l 342 613 l 342 1145 m 651 -27 l 651 624 l 754 624 l 754 -16 q 911 43 819 0 l 911 38 q 586 -163 841 -136 q 575 -22 613 -103 q 651 -27 597 -27 m 499 586 l 505 586 q 602 477 543 548 q 608 472 597 477 q 553 363 597 434 q 499 586 510 461 m 890 477 q 836 353 863 401 q 792 591 803 450 q 890 477 857 526 m 608 244 q 553 125 591 179 q 499 353 515 239 q 608 244 564 298 m 846 103 q 781 353 798 217 q 884 228 846 282 q 846 103 868 146 z "}}}
